<svg width="50" height="54" viewBox="0 0 50 54" fill="none" xmlns="http://www.w3.org/2000/svg">
<path fill-rule="evenodd" clip-rule="evenodd" d="M5.56125 19.5613L10.6612 8.74236H5.56125V1.01513L0.460938 11.834H5.56125V19.5613Z" fill="white"/>
<path fill-rule="evenodd" clip-rule="evenodd" d="M24.0922 33.4962L20.4102 53.3396H30.5768L26.894 33.4962H24.0922Z" fill="white"/>
<path fill-rule="evenodd" clip-rule="evenodd" d="M25.6802 22.6887C25.7114 22.6887 25.7433 22.6899 25.7752 22.6925C26.1089 22.7177 26.4127 22.8712 26.6311 23.1249C26.8492 23.3782 26.9557 23.702 26.9308 24.0358C26.9056 24.3696 26.7517 24.6737 26.4984 24.8917C26.2443 25.1102 25.9213 25.2177 25.5867 25.1914C25.2529 25.1666 24.9492 25.0127 24.7308 24.759C24.5127 24.5053 24.4066 24.1815 24.4311 23.8477C24.4808 23.1909 25.0315 22.6887 25.6802 22.6887L25.6802 22.6887ZM25.3208 28.7262C25.4439 28.7351 25.5667 28.74 25.6891 28.74C26.8351 28.74 27.9314 28.3346 28.8092 27.5798C29.7813 26.7439 30.3692 25.5801 30.4651 24.3017C30.6636 21.6637 28.6787 19.3557 26.0409 19.1576C23.4022 18.9592 21.0949 20.9437 20.8965 23.5825C20.6981 26.2201 22.683 28.5278 25.3207 28.7262" fill="white"/>
<path fill-rule="evenodd" clip-rule="evenodd" d="M21.6358 8.26138C20.1311 8.64894 18.6914 9.25269 17.3574 10.0556L19.1855 13.0923C20.225 12.4667 21.347 11.9964 22.5196 11.6945L21.6358 8.26138Z" fill="white"/>
<path fill-rule="evenodd" clip-rule="evenodd" d="M27.1704 4.14469C29.475 4.31937 31.6744 4.87829 33.7368 5.79767L31.9496 9.01239C30.3489 8.33887 28.6555 7.93202 26.8967 7.80033C26.1183 7.74247 25.3301 7.73876 24.5562 7.79069L24.7957 11.3277C25.4021 11.2862 26.0197 11.2888 26.6316 11.3348C27.8729 11.4282 29.0708 11.6997 30.2124 12.1381L27.054 17.8221L30.1527 19.5434L39.4831 2.75438L36.3844 1.03276L35.4636 2.68982C32.9487 1.52713 30.2583 0.823596 27.4367 0.609971C25.1098 0.436033 22.7874 0.604408 20.5332 1.11251L21.3117 4.57019C23.2239 4.1396 25.1947 3.99681 27.1704 4.14442" fill="white"/>
<path fill-rule="evenodd" clip-rule="evenodd" d="M19.0679 5.21833L17.884 1.87743C16.4149 2.39778 14.9912 3.07012 13.6523 3.87534L15.4796 6.91242C16.6153 6.22964 17.8221 5.65963 19.0679 5.21824" fill="white"/>
<path fill-rule="evenodd" clip-rule="evenodd" d="M37.9316 27.3733L41.3463 28.3238C41.7635 26.827 41.9601 25.2786 41.9319 23.7224L38.3878 23.7862C38.4105 24.9996 38.2566 26.2065 37.9317 27.3733" fill="white"/>
<path fill-rule="evenodd" clip-rule="evenodd" d="M42.1455 35.1748C40.8352 37.093 39.2419 38.7259 37.4028 40.0555L35.5117 36.9016C36.9076 35.8475 38.1164 34.5774 39.1166 33.1101C39.558 32.4637 39.9544 31.7828 40.2953 31.0866L37.1117 29.5275C36.845 30.0719 36.535 30.6053 36.1882 31.1126C35.4806 32.1511 34.6298 33.0523 33.6681 33.8259L30.2924 28.1942L27.252 30.0162L37.1252 46.4872L40.166 44.6651L39.2303 43.1048C41.507 41.5045 43.4708 39.5195 45.0734 37.1729C46.3886 35.2451 47.4036 33.1485 48.0905 30.9426L44.7059 29.8889C44.1236 31.7592 43.2621 33.538 42.1457 35.175" fill="white"/>
<path fill-rule="evenodd" clip-rule="evenodd" d="M45.5924 23.6676C45.6165 24.9935 45.506 26.3238 45.2656 27.6215L48.7511 28.268C49.0345 26.7362 49.1647 25.1671 49.1361 23.6038L45.5924 23.6676Z" fill="white"/>
<path fill-rule="evenodd" clip-rule="evenodd" d="M14.5117 35.1568C15.5999 36.2661 16.8423 37.2115 18.2042 37.9647L19.921 34.8638C18.8587 34.276 17.8904 33.5398 17.0426 32.6749L14.5117 35.1568Z" fill="white"/>
<path fill-rule="evenodd" clip-rule="evenodd" d="M8.17989 32.4233C7.19702 30.3779 6.58435 28.2354 6.33958 26.0331L10.0243 25.9734C10.2494 27.6528 10.7356 29.2809 11.4821 30.8323C11.8215 31.5373 12.2124 32.2212 12.6456 32.8646L15.587 30.8871C15.2491 30.3839 14.9424 29.8486 14.6761 29.2953C14.1543 28.2112 13.7964 27.0793 13.6002 25.9148L19.6866 25.8162L19.6313 22.2721L0.433594 22.584L0.488112 26.1281L2.78529 26.091C3.04675 28.8072 3.77812 31.4468 4.98534 33.9599C5.99744 36.0616 7.30558 37.9887 8.87282 39.6873L11.4775 37.2837C10.1487 35.8432 9.0386 34.208 8.17973 32.4234" fill="white"/>
<path fill-rule="evenodd" clip-rule="evenodd" d="M10.8594 41.5978C12.0436 42.6092 13.3376 43.506 14.7058 44.2633L16.4225 41.1624C15.262 40.5201 14.165 39.7598 13.161 38.9026L10.8594 41.5978Z" fill="white"/>
</svg>
