<svg width="19" height="19" viewBox="0 0 19 19" fill="none" xmlns="http://www.w3.org/2000/svg">
<path d="M14.1135 18.4845C14.8983 18.4846 15.6665 18.259 16.3265 17.8346C16.9866 17.4102 17.5107 16.805 17.8362 16.091C18.1618 15.377 18.2752 14.5844 18.1628 13.8078C18.0504 13.0311 17.717 12.3032 17.2023 11.7108C16.6877 11.1184 16.0135 10.6866 15.2602 10.4667C14.5069 10.2469 13.7063 10.2483 12.9538 10.4709C12.2013 10.6935 11.5287 11.1278 11.0162 11.7221C10.5037 12.3164 10.173 13.0455 10.0634 13.8225C7.65084 12.5736 5.69634 10.5919 4.48084 8.1623C5.05502 8.10852 5.61131 7.93379 6.11312 7.64959C6.61492 7.3654 7.05087 6.97818 7.39228 6.51341C7.98772 5.76377 8.28905 4.82256 8.2397 3.86648C8.19035 2.91041 7.79371 2.00523 7.12425 1.32088C6.96733 1.15434 6.7953 1.00273 6.61035 0.86799C6.00641 0.395834 5.28194 0.102881 4.51956 0.0225332C3.75718 -0.0578145 2.98756 0.0776763 2.29845 0.413557C1.60935 0.749439 1.02849 1.27219 0.6221 1.92222C0.215713 2.57224 0.000154215 3.32338 1.21536e-07 4.08998C-3.45989e-05 4.23015 0.00736995 4.37022 0.0221825 4.5096C-0.0225932 4.92192 0.00303505 5.33884 0.0979723 5.74257C0.240309 6.33965 0.430708 6.92563 0.628501 7.50792C1.00954 8.7185 1.55967 9.86918 2.2626 10.9259C2.9499 11.8993 3.71923 12.8121 4.56218 13.6543C5.59541 14.7313 6.7548 15.6796 8.01524 16.4789C9.34064 17.2904 10.801 17.7728 12.2798 18.2146C12.6055 18.3097 12.9399 18.3716 13.278 18.3995C13.5529 18.456 13.8329 18.4845 14.1135 18.4845Z" fill="white"/>
</svg>
