<svg width="35" height="36" viewBox="0 0 35 36" fill="none" xmlns="http://www.w3.org/2000/svg">
<path d="M0.5 4.48535C0.5 2.55235 2.067 0.985352 4 0.985352H31C32.933 0.985352 34.5 2.55235 34.5 4.48535V31.4854C34.5 33.4183 32.933 34.9854 31 34.9854H4C2.067 34.9854 0.5 33.4183 0.5 31.4854V4.48535Z" stroke="#B5B5B5"/>
<path d="M10.3679 17.2782C9.97735 17.6688 9.97735 18.3019 10.3679 18.6925L16.7318 25.0564C17.1224 25.4469 17.7555 25.4469 18.146 25.0564C18.5366 24.6659 18.5366 24.0327 18.146 23.6422L12.4892 17.9854L18.146 12.3285C18.5366 11.938 18.5366 11.3048 18.146 10.9143C17.7555 10.5238 17.1224 10.5238 16.7318 10.9143L10.3679 17.2782ZM23.9258 16.9854L11.075 16.9854L11.075 18.9854L23.9258 18.9854L23.9258 16.9854Z" fill="#151515"/>
</svg>
