<svg width="237" height="36" viewBox="0 0 237 36" fill="none" xmlns="http://www.w3.org/2000/svg">
<path d="M1.9214 16.887C1.9214 22.5815 5.95622 26.7594 11.6794 26.7594C17.4025 26.7594 21.4373 22.5815 21.4373 16.887C21.4373 11.1924 17.4025 7.01454 11.6794 7.01454C5.95622 7.01454 1.9214 11.1924 1.9214 16.887ZM18.0034 16.887C18.0034 20.8073 15.5139 23.7834 11.6794 23.7834C7.81624 23.7834 5.35529 20.8073 5.35529 16.887C5.35529 12.938 7.81624 9.99058 11.6794 9.99058C15.5139 9.99058 18.0034 12.938 18.0034 16.887ZM34.1215 26.416V10.2767H39.9019V7.32931H24.9931V10.2767H30.7734V26.416H34.1215ZM61.6541 26.416V7.32931H45.0283V26.416H48.3764V10.2767H58.306V26.416H61.6541ZM71.345 26.416V19.2907H76.3813C80.3589 19.2907 82.6196 16.5436 82.6196 13.31C82.6196 10.0764 80.3876 7.32931 76.3813 7.32931H67.9969V26.416H71.345ZM79.1857 13.31C79.1857 15.1414 77.8121 16.3433 75.9235 16.3433H71.345V10.2767H75.9235C77.8121 10.2767 79.1857 11.4786 79.1857 13.31ZM102.714 26.416L95.2163 7.32931H91.0384L83.5411 26.416H87.2039L88.6061 22.7532H97.6487L99.0508 26.416H102.714ZM96.7043 19.8058H89.5504L93.1274 10.1623L96.7043 19.8058ZM116.731 26.416C120.308 26.416 122.283 24.2126 122.283 21.2652C122.283 18.9187 120.623 16.887 118.591 16.5722C120.365 16.2002 121.911 14.5977 121.911 12.194C121.911 9.50411 119.965 7.32931 116.474 7.32931H107.088V26.416H116.731ZM110.436 10.2767H115.787C117.504 10.2767 118.477 11.3355 118.477 12.7663C118.477 14.1971 117.504 15.2273 115.787 15.2273H110.436V10.2767ZM110.436 18.1747H115.93C117.847 18.1747 118.849 19.3765 118.849 20.8073C118.849 22.467 117.761 23.4686 115.93 23.4686H110.436V18.1747ZM127.932 26.416H131.166L141.124 11.9937V26.416H144.472V7.32931H141.038L131.28 21.3796V7.32931H127.932V26.416ZM158.715 26.416V10.2767H164.495V7.32931H149.587V10.2767H155.367V26.416H158.715ZM169.622 7.32931V26.416H178.006C182.013 26.416 184.245 23.6689 184.245 20.4353C184.245 17.2017 181.984 14.4546 178.006 14.4546H172.97V7.32931H169.622ZM177.549 17.4021C179.437 17.4021 180.811 18.6039 180.811 20.4353C180.811 22.2667 179.437 23.4686 177.549 23.4686H172.97V17.4021H177.549Z" fill="white"/>
<path d="M209.1 16.6711L209.1 13.4163L209.1 8.41626H213.5V12.3788L231.277 12.3788V16.6711H209.1Z" fill="white"/>
<path d="M237 14.525L224.123 1.64795L221.262 4.7774L229.131 12.3789V16.6712L221.262 24.4265L224.123 27.4021L237 14.525Z" fill="white"/>
</svg>
